<svg xmlns="http://www.w3.org/2000/svg" width="23.115" height="23.115" viewBox="0 0 23.115 23.115">
  <g id="Group_29" data-name="Group 29" transform="translate(-764.21 -123.524)">
    <path id="times-circle-regular" d="M24.461,12.9A11.557,11.557,0,1,0,36.018,24.461,11.555,11.555,0,0,0,24.461,12.9Zm0,20.878a9.321,9.321,0,1,1,9.321-9.321A9.318,9.318,0,0,1,24.461,33.781ZM29.2,21.562l-2.9,2.9,2.9,2.9a.56.56,0,0,1,0,.792L28.152,29.2a.56.56,0,0,1-.792,0l-2.9-2.9-2.9,2.9a.56.56,0,0,1-.792,0l-1.053-1.053a.56.56,0,0,1,0-.792l2.9-2.9-2.9-2.9a.56.56,0,0,1,0-.792l1.053-1.053a.56.56,0,0,1,.792,0l2.9,2.9,2.9-2.9a.56.56,0,0,1,.792,0L29.2,20.77a.56.56,0,0,1,0,.792Z" transform="translate(751.307 110.621)" fill="#49a1ef"/>
  </g>
</svg>
