<svg xmlns="http://www.w3.org/2000/svg" width="27.698" height="27.698" viewBox="0 0 27.698 27.698">
  <path id="times-solid" d="M19.1,93.849l7.874-7.874a2.475,2.475,0,0,0,0-3.5l-1.75-1.75a2.475,2.475,0,0,0-3.5,0L13.849,88.6,5.975,80.725a2.475,2.475,0,0,0-3.5,0l-1.75,1.75a2.475,2.475,0,0,0,0,3.5L8.6,93.849.725,101.723a2.475,2.475,0,0,0,0,3.5l1.75,1.75a2.475,2.475,0,0,0,3.5,0L13.849,99.1l7.874,7.874a2.475,2.475,0,0,0,3.5,0l1.75-1.75a2.475,2.475,0,0,0,0-3.5Z" transform="translate(0 -80)" 
  fill="#fff"/>
</svg>
