<svg xmlns="http://www.w3.org/2000/svg" width="28.823" height="25.624" viewBox="0 0 28.823 25.624">
  <path id="edit-regular" d="M20.131,17.188l1.6-1.6a.4.4,0,0,1,.686.285v7.276a2.4,2.4,0,0,1-2.4,2.4H2.4a2.4,2.4,0,0,1-2.4-2.4V5.533a2.4,2.4,0,0,1,2.4-2.4H16.088a.4.4,0,0,1,.285.686l-1.6,1.6a.4.4,0,0,1-.285.115H2.4V23.147H20.016v-5.68A.394.394,0,0,1,20.131,17.188Zm7.836-10.1L14.827,20.23l-4.524.5a2.067,2.067,0,0,1-2.282-2.282l.5-4.524L21.662.784a2.921,2.921,0,0,1,4.138,0l2.162,2.162a2.931,2.931,0,0,1,.005,4.143ZM23.023,8.636,20.116,5.728l-9.3,9.3L10.453,18.3l3.268-.365Zm3.243-3.988L24.1,2.486a.522.522,0,0,0-.741,0L21.818,4.032l2.907,2.907,1.546-1.546A.533.533,0,0,0,26.266,4.648Z" transform="translate(0 0.075)" fill="#fff"/>
</svg>
