<svg xmlns="http://www.w3.org/2000/svg" width="335.987" height="336.003" viewBox="0 0 335.987 336.003">
  <g id="Group_31" data-name="Group 31" transform="translate(-9298.992 -1309.997)" opacity="0.52">
    <path id="Path_19" data-name="Path 19" d="M160.794,4C74.333,4,4,69.294,4,149.595a141.059,141.059,0,0,0,56.5,112v50.9a5.208,5.208,0,0,0,7.728,4.592l49.782-27.5a168.5,168.5,0,0,0,42.782,5.6c86.461,0,156.794-65.294,156.794-145.595S247.255,4,160.794,4Z" transform="translate(9306.191 1317.197)" fill="#176ae6"/>
    <path id="Path_20" data-name="Path 20" d="M243.833,36a21.279,21.279,0,0,0-19.319,12.04,118.324,118.324,0,0,1-107.74,65.517,124.762,124.762,0,0,1-21.9-1.96A33.151,33.151,0,0,0,65.7,121.005L13.57,173.139a5.6,5.6,0,0,0,7.336,2.184l51.518-28.279a174.49,174.49,0,0,0,44.35,5.6c64.286,0,119.948-34.887,146.21-85.341A21.559,21.559,0,0,0,243.833,36Z" transform="translate(9350.212 1464.39)" fill="#176ae6"/>
    <path id="Path_21" data-name="Path 21" d="M14.185,81.4A16.8,16.8,0,0,0,39.1,80.337,132.6,132.6,0,0,1,138.5,36.6,135.235,135.235,0,0,1,206.986,54.97,17.135,17.135,0,0,0,228.1,52.562h0a16.8,16.8,0,0,0-3.248-26.543A170.625,170.625,0,0,0,138.5,3,167.266,167.266,0,0,0,13.513,57.658a16.8,16.8,0,0,0,.5,23.743Z" transform="translate(9318.886 1317.393)" fill="#176ae6"/>
    <path id="Path_22" data-name="Path 22" d="M120.01,108.869,78.964,70.678A6.16,6.16,0,0,0,71.516,69.5L16.75,99.461,83.387,23.08l42.166,38.3A6.16,6.16,0,0,0,133,62.5l53.142-28.671Z" transform="translate(9364.839 1404.961)" fill="#fff"/>
    <path id="Path_23" data-name="Path 23" d="M169.994,2C77.373,2,2,71.941,2,157.954A151.194,151.194,0,0,0,62.534,277.846v54.542a5.6,5.6,0,0,0,8.288,4.928l53.31-29.287a180.538,180.538,0,0,0,45.862,5.88c92.621,0,167.994-69.941,167.994-155.954S262.614,2,169.994,2Zm0,300.709a169.17,169.17,0,0,1-45.078-6.1,5.6,5.6,0,0,0-4.2.5L73.733,322.924V275.046a5.6,5.6,0,0,0-2.24-4.48A140.331,140.331,0,0,1,13.2,157.954C13.2,78.157,83.533,13.2,169.994,13.2S326.788,78.157,326.788,157.954,256.454,302.709,169.994,302.709Z" transform="translate(9296.992 1307.997)" fill="#fff"/>
    <path id="Path_24" data-name="Path 24" d="M225.556,83.443l-75.933,42.222-39.2-40.99a7.112,7.112,0,0,0-4.088-1.736,5.6,5.6,0,0,0-4.032,1.736L13.38,178.7a5.6,5.6,0,0,0,6.776,8.568l76.885-42L135.4,186.2a5.6,5.6,0,0,0,4.088,1.792h0a5.6,5.6,0,0,0,4.088-1.736l88.757-94.188a5.6,5.6,0,0,0-6.776-8.736Zm-86.069,90.941-37.295-39.758a5.6,5.6,0,0,0-6.832-1.064L45.579,160.776l60.646-64.342,38.3,39.871a5.6,5.6,0,0,0,6.776,1.008L199.629,110.6ZM63.89,32.709a5.6,5.6,0,0,0,2.408-.56,134.4,134.4,0,0,1,76.381-11.48A5.658,5.658,0,1,0,144.3,9.47,145.258,145.258,0,0,0,61.427,21.957,5.6,5.6,0,0,0,63.89,32.6ZM168.158,27a128.236,128.236,0,0,1,16.463,7.28,5.611,5.611,0,0,0,5.264-9.912,138.875,138.875,0,0,0-17.919-7.9A5.6,5.6,0,1,0,168.158,27Zm-44.8,199.856a5.6,5.6,0,0,0-5.6,5.6v10.808a5.6,5.6,0,0,0,11.2,0V232.453A5.6,5.6,0,0,0,123.36,226.854Zm34.663.5a5.6,5.6,0,1,0-10.752,3.136l3.024,10.36a5.59,5.59,0,1,0,10.7-3.192ZM69.77,213.694a5.6,5.6,0,0,0-7.728,1.792l-5.88,9.3a5.609,5.609,0,0,0,9.52,5.936l5.6-9.3A5.6,5.6,0,0,0,69.77,213.694Zm114.908,1.568a5.609,5.609,0,1,0-9.52,5.936l5.6,9.3a5.671,5.671,0,1,0,9.8-5.712Zm-89.037,8.232A5.6,5.6,0,0,0,88.7,227.3l-2.968,10.36a5.8,5.8,0,0,0,11.2,2.968l3.024-10.36a5.6,5.6,0,0,0-4.312-6.776Z" transform="translate(9343.626 1335.526)" fill="#fff"/>
  </g>
</svg>
