<svg xmlns="http://www.w3.org/2000/svg" width="176" height="176.008" viewBox="0 0 176 176.008">
  <g id="Group_32" data-name="Group 32" transform="translate(-9679 -1375.997)">
    <path id="Path_19" data-name="Path 19" d="M86.133,4C40.843,4,4,38.2,4,80.267a73.891,73.891,0,0,0,29.6,58.667V165.6A2.728,2.728,0,0,0,37.645,168l26.077-14.4a88.264,88.264,0,0,0,22.411,2.933c45.291,0,82.133-34.2,82.133-76.267S131.424,4,86.133,4Z" transform="translate(9680.866 1377.864)" fill="#176ae6"/>
    <path id="Path_20" data-name="Path 20" d="M134.189,36a11.147,11.147,0,0,0-10.12,6.307,61.981,61.981,0,0,1-56.437,34.32A65.354,65.354,0,0,1,56.162,75.6a17.365,17.365,0,0,0-15.283,4.928L13.57,107.837a2.933,2.933,0,0,0,3.843,1.144L44.4,94.168A91.4,91.4,0,0,0,67.631,97.1c33.675,0,62.832-18.275,76.589-44.7A11.293,11.293,0,0,0,134.188,36Z" transform="translate(9699.368 1439.73)" fill="#176ae6"/>
    <path id="Path_21" data-name="Path 21" d="M11.643,44.068A8.8,8.8,0,0,0,24.7,43.511,69.461,69.461,0,0,1,76.763,20.6a70.84,70.84,0,0,1,35.875,9.621A8.976,8.976,0,0,0,123.7,28.962h0a8.8,8.8,0,0,0-1.7-13.9A89.378,89.378,0,0,0,76.763,3,87.618,87.618,0,0,0,11.291,31.631a8.8,8.8,0,0,0,.264,12.437Z" transform="translate(9685.208 1378.443)" fill="#176ae6"/>
    <path id="Path_22" data-name="Path 22" d="M70.841,68.019l-21.5-20.005a3.227,3.227,0,0,0-3.9-.616L16.75,63.091,51.657,23.08,73.745,43.144a3.227,3.227,0,0,0,3.9.587l27.837-15.019Z" transform="translate(9705.517 1414.752)" fill="#fff"/>
    <path id="Path_23" data-name="Path 23" d="M90,2C41.483,2,2,38.637,2,83.693a79.2,79.2,0,0,0,31.709,62.8v28.571a2.933,2.933,0,0,0,4.341,2.581l27.925-15.341A94.57,94.57,0,0,0,90,165.386c48.517,0,88-36.637,88-81.693S138.517,2,90,2Zm0,157.52a88.616,88.616,0,0,1-23.613-3.2,2.933,2.933,0,0,0-2.2.264L39.576,170.109v-25.08a2.933,2.933,0,0,0-1.173-2.347A73.509,73.509,0,0,1,7.867,83.693C7.867,41.893,44.709,7.867,90,7.867s82.133,34.027,82.133,75.827S135.29,159.52,90,159.52Z" transform="translate(9677 1373.997)" fill="#fff"/>
    <path id="Path_24" data-name="Path 24" d="M123.933,47.512,84.157,69.629,63.623,48.157a3.725,3.725,0,0,0-2.141-.909,2.933,2.933,0,0,0-2.112.909L12.789,97.408a2.933,2.933,0,0,0,3.549,4.488l40.275-22,20.093,21.443a2.933,2.933,0,0,0,2.141.939h0a2.933,2.933,0,0,0,2.141-.909l46.493-49.339a2.933,2.933,0,0,0-3.549-4.576ZM78.847,95.149,59.311,74.323a2.933,2.933,0,0,0-3.579-.557L29.655,88.021l31.768-33.7L81.487,75.2a2.933,2.933,0,0,0,3.549.528l25.315-13.992Zm-39.6-74.213a2.933,2.933,0,0,0,1.261-.293,70.4,70.4,0,0,1,40.011-6.013,2.964,2.964,0,1,0,.851-5.867A76.09,76.09,0,0,0,37.957,15.3a2.933,2.933,0,0,0,1.291,5.573Zm54.619-2.992a67.173,67.173,0,0,1,8.624,3.813,2.939,2.939,0,0,0,2.757-5.192,72.747,72.747,0,0,0-9.387-4.136,2.933,2.933,0,1,0-1.995,5.515ZM70.4,122.635a2.933,2.933,0,0,0-2.933,2.933v5.661a2.933,2.933,0,1,0,5.867,0v-5.661A2.933,2.933,0,0,0,70.4,122.635Zm18.157.264a2.933,2.933,0,0,0-5.632,1.643l1.584,5.427a2.928,2.928,0,1,0,5.6-1.672Zm-46.229-7.157a2.933,2.933,0,0,0-4.048.939l-3.08,4.869a2.938,2.938,0,1,0,4.987,3.109l2.933-4.869A2.933,2.933,0,0,0,42.327,115.741Zm60.192.821a2.938,2.938,0,1,0-4.987,3.109l2.933,4.869a2.971,2.971,0,1,0,5.133-2.992Zm-46.64,4.312a2.933,2.933,0,0,0-3.637,1.995L50.687,128.3a3.038,3.038,0,0,0,5.867,1.555l1.584-5.427a2.933,2.933,0,0,0-2.259-3.549Z" transform="translate(9696.601 1385.568)" fill="#fff"/>
  </g>
</svg>
