<svg xmlns="http://www.w3.org/2000/svg" width="22.506" height="16" viewBox="0 0 22.506 16">
  <g id="mail_1_" data-name="mail (1)" transform="translate(0 -4.482)">
    <g id="Group_24" data-name="Group 24" transform="translate(3.92 12.196)">
      <path id="Path_13" data-name="Path 13" d="M23.394,19.755a.359.359,0,0,1-.248-.1L18.97,15.739a.363.363,0,1,1,.5-.528l4.176,3.917a.363.363,0,0,1-.249.627Z" transform="translate(-9.092 -15.111)"/>
      <path id="Path_14" data-name="Path 14" d="M5.765,19.755a.363.363,0,0,1-.249-.627l4.177-3.917a.363.363,0,1,1,.5.528L6.013,19.657A.359.359,0,0,1,5.765,19.755Z" transform="translate(-5.402 -15.112)"/>
    </g>
    <path id="Path_15" data-name="Path 15" d="M20.692,20.482H1.814A1.816,1.816,0,0,1,0,18.668V6.3A1.816,1.816,0,0,1,1.814,4.482H20.692A1.816,1.816,0,0,1,22.506,6.3V18.668A1.816,1.816,0,0,1,20.692,20.482ZM1.814,5.208A1.09,1.09,0,0,0,.726,6.3V18.668a1.09,1.09,0,0,0,1.089,1.089H20.692a1.09,1.09,0,0,0,1.089-1.089V6.3a1.09,1.09,0,0,0-1.089-1.089Z" transform="translate(0 0)"/>
    <path id="Path_16" data-name="Path 16" d="M11.434,14.524a2.029,2.029,0,0,1-1.332-.48L.783,5.915a.363.363,0,1,1,.477-.547L10.578,13.5a1.358,1.358,0,0,0,1.711,0L21.6,5.381a.363.363,0,1,1,.478.547l-9.307,8.115A2.028,2.028,0,0,1,11.434,14.524Z" transform="translate(-0.181 -0.219)"/>
  </g>
</svg>
