<svg xmlns="http://www.w3.org/2000/svg" width="13.008" height="16" viewBox="0 0 13.008 16">
  <g id="padlock" transform="translate(-45.7)">
    <g id="Group_27" data-name="Group 27" transform="translate(45.7)">
      <path id="Path_17" data-name="Path 17" d="M46.872,16H57.536a1.175,1.175,0,0,0,1.172-1.172V8.455a1.175,1.175,0,0,0-1.172-1.172h-.825V4.507a4.507,4.507,0,1,0-9.015,0V7.283h-.825A1.175,1.175,0,0,0,45.7,8.455v6.373A1.175,1.175,0,0,0,46.872,16ZM48.5,4.507a3.705,3.705,0,1,1,7.411,0V7.283H48.5Zm-2,3.948a.372.372,0,0,1,.37-.37H57.536a.372.372,0,0,1,.37.37v6.373a.372.372,0,0,1-.37.37H46.872a.372.372,0,0,1-.37-.37Z" transform="translate(-45.7)"/>
      <path id="Path_18" data-name="Path 18" d="M196.133,308.967a1.633,1.633,0,1,0-1.633-1.633A1.636,1.636,0,0,0,196.133,308.967Zm0-2.462a.831.831,0,1,1-.831.831A.833.833,0,0,1,196.133,306.505Z" transform="translate(-189.629 -295.693)"/>
    </g>
  </g>
</svg>
