<svg xmlns="http://www.w3.org/2000/svg" width="78.337" height="75.337" viewBox="0 0 78.337 75.337">
  <g id="Group_1055" data-name="Group 1055" transform="translate(-221 -207)">
    <ellipse id="Ellipse_4" data-name="Ellipse 4" cx="39.169" cy="37.669" rx="39.169" ry="37.669" transform="translate(221 207)" fill="#9392c2" opacity="0.8"/>
    <g id="_112-photo-camera-1" data-name="112-photo-camera-1" transform="translate(243.483 230.779)">
      <g id="Group_1045" data-name="Group 1045" transform="translate(0 0)">
        <g id="Group_1044" data-name="Group 1044" transform="translate(0 0)">
          <path id="Path_1470" data-name="Path 1470" d="M32.463,55.783H25.65l-1.474-3.847a1.147,1.147,0,0,0-1.07-.736H11.266a1.146,1.146,0,0,0-1.07.736L8.722,55.783H1.91A1.912,1.912,0,0,0,0,57.693v19.1A1.912,1.912,0,0,0,1.91,78.7H32.463a1.912,1.912,0,0,0,1.91-1.91v-19.1A1.912,1.912,0,0,0,32.463,55.783Zm-.382,20.623H2.291V58.074H9.51a1.146,1.146,0,0,0,1.07-.736l1.475-3.847H22.318l1.475,3.847a1.146,1.146,0,0,0,1.07.736h7.218V76.406Z" transform="translate(0 -51.2)" fill="#fff"/>
        </g>
      </g>
      <g id="Group_1047" data-name="Group 1047" transform="translate(9.128 7.065)">
        <g id="Group_1046" data-name="Group 1046" transform="translate(0 0)">
          <path id="Path_1471" data-name="Path 1471" d="M144.022,156.439a8.059,8.059,0,1,0,8.058,8.058A8.068,8.068,0,0,0,144.022,156.439Zm0,13.826a5.767,5.767,0,1,1,5.767-5.767A5.773,5.773,0,0,1,144.022,170.265Z" transform="translate(-135.964 -156.439)" fill="#fff"/>
        </g>
      </g>
    </g>
  </g>
</svg>
