<svg xmlns="http://www.w3.org/2000/svg" width="37.549" height="28.615" viewBox="0 0 37.549 28.615">
  <path id="sign-out-alt-solid" d="M37.03,79.552,24.513,92.069A1.791,1.791,0,0,1,21.458,90.8V83.65H11.325a1.784,1.784,0,0,1-1.788-1.788V74.709a1.784,1.784,0,0,1,1.788-1.788H21.458V65.768A1.792,1.792,0,0,1,24.513,64.5L37.03,77.019A1.8,1.8,0,0,1,37.03,79.552ZM14.305,91.7v-2.98a.9.9,0,0,0-.894-.894H7.153a2.382,2.382,0,0,1-2.384-2.384V71.133a2.382,2.382,0,0,1,2.384-2.384h6.259a.9.9,0,0,0,.894-.894v-2.98a.9.9,0,0,0-.894-.894H7.153A7.154,7.154,0,0,0,0,71.133V85.438a7.154,7.154,0,0,0,7.153,7.153h6.259A.9.9,0,0,0,14.305,91.7Z" transform="translate(0 -63.979)" fill="#49a1ef"/>
</svg>
