<svg xmlns="http://www.w3.org/2000/svg" width="37.65" height="37.65" viewBox="0 0 37.65 37.65">
  <path id="user-circle-solid" d="M18.825,8A18.825,18.825,0,1,0,37.65,26.825,18.822,18.822,0,0,0,18.825,8Zm0,7.287a6.68,6.68,0,1,1-6.68,6.68A6.68,6.68,0,0,1,18.825,15.287Zm0,26.112A14.546,14.546,0,0,1,7.7,36.222a8.463,8.463,0,0,1,7.477-4.539,1.857,1.857,0,0,1,.539.083,10.05,10.05,0,0,0,3.1.524,10.012,10.012,0,0,0,3.1-.524,1.857,1.857,0,0,1,.539-.083,8.463,8.463,0,0,1,7.477,4.539A14.546,14.546,0,0,1,18.825,41.4Z" transform="translate(0 -8)" fill="#49a1ef"/>
</svg>
