<svg xmlns="http://www.w3.org/2000/svg" width="21.726" height="22.073" viewBox="0 0 21.726 22.073">
  <path id="user-solid" d="M10.438,10.612c3.294,0,5.964-2.375,5.964-5.306S13.732,0,10.438,0,4.473,2.375,4.473,5.306,7.143,10.612,10.438,10.612Zm4.175,1.326h-.778a9.031,9.031,0,0,1-6.794,0H6.263C2.805,11.938,0,14.433,0,17.509v1.724a2.125,2.125,0,0,0,2.237,1.99h16.4a2.125,2.125,0,0,0,2.237-1.99V17.509C20.876,14.433,18.07,11.938,14.613,11.938Z" transform="translate(0.425 0.425)" fill="rgba(255,255,255,0)" stroke="#000" stroke-width="0.85"/>
</svg>
